<?xml version="1.0" encoding="UTF-8"?>
<svg width="32px" height="32px" viewBox="0 0 32 32" version="1.1" xmlns="http://www.w3.org/2000/svg" xmlns:xlink="http://www.w3.org/1999/xlink">
    <g id="icon/graph_blue" stroke="none" stroke-width="1" fill="none" fill-rule="evenodd">
        <g id="Group-94" transform="translate(1.000000, 1.000000)" fill="#fff">
            <path d="M1.26689189,28.5835946 L1.26689189,9.20278378 L0.658783784,8.75785135 L1.2302027,8.96602703 C1.24216216,8.93318919 1.25472973,8.90278378 1.26689189,8.87035135 C2.22121622,6.2942027 3.49054054,4.6515 4.84114865,4.18508108 C5.12959459,4.08555405 5.42128378,4.03589189 5.7147973,4.04602703 C7.4847973,4.10947297 9.16216216,6.17440541 10.2681081,9.61183784 C10.340473,9.83643243 10.4102027,10.0665 10.4775,10.3026486 L11.267027,13.0750135 C12.2677703,16.5884595 13.8762162,18.8717027 15.7958108,19.5041351 C16.9175676,19.8738649 18.0666892,19.6405541 19.1181081,18.8303514 C19.1898649,18.7748108 19.2618243,18.7251486 19.3339865,18.6777162 C19.9272973,18.2856892 20.5285135,18.1561622 21.1252703,18.2950135 C22.1858108,18.5427162 23.2356081,19.6300135 24.0814865,21.3570405 L26.0659459,25.4096757 L27.54,28.4200135 L27.6200676,28.5835946 L1.26689189,28.5835946 Z M28.9743243,28.5835946 L28.719527,28.0632568 L25.1736486,20.8221081 C24.1497973,18.731027 22.8454054,17.4475135 21.4017568,17.1106216 C20.4048649,16.8775135 19.3903378,17.1189324 18.4607432,17.8042703 C18.4323649,17.8253514 18.4037838,17.8452162 18.3754054,17.8671081 C17.6481081,18.4277838 16.9080405,18.5897432 16.1764865,18.3489324 C14.6959459,17.8614324 13.2979054,15.7650811 12.4368243,12.7417703 L12.0541216,11.3978514 L11.6470946,9.96940541 C10.3802027,5.5215 8.23398649,2.91940541 5.75837838,2.83062162 C5.12533784,2.80609459 4.5075,2.95345946 3.91621622,3.25974324 C2.94405405,3.76386486 2.04425676,4.69933784 1.26689189,6.01021622 L1.26689189,0.610621622 L1.26689189,0.00251351351 L0.658783784,0.00251351351 L0.0506756757,0.00251351351 L0.0506756757,29.7998108 L29.847973,29.7998108 L29.847973,29.1917027 L29.847973,28.5835946 L29.2398649,28.5835946 L28.9743243,28.5835946 Z" id="Fill-69"></path>
            <path d="M20.6152905,6.07487838 L19.0861014,6.07487838 L19.0861014,6.68298649 L19.0861014,7.29109459 L20.4987365,7.29109459 C20.4952905,7.39508108 20.4924527,7.49886486 20.4924527,7.60386486 C20.4924527,7.99386486 20.5159662,8.37677027 20.5611689,8.75116216 L19.0861014,8.75116216 L19.0861014,9.35927027 L19.0861014,9.96737838 L20.7930608,9.96737838 C21.5860338,13.0048784 23.8615743,15.2052162 26.5396824,15.2052162 C27.7291419,15.2052162 28.879277,14.7740676 29.8654257,13.9585946 L29.4778581,13.4899459 L29.0902905,13.0215 C28.3248851,13.6545405 27.4429257,13.989 26.5396824,13.989 C24.5075878,13.989 22.7655608,12.3209595 22.0530608,9.96737838 L27.0290068,9.96737838 L27.0290068,8.75116216 L21.7883311,8.75116216 C21.7368446,8.37859459 21.7086689,7.99568919 21.7086689,7.60386486 C21.7086689,7.49886486 21.7106959,7.39487838 21.7145473,7.29109459 L27.83475,7.29109459 L27.83475,6.68298649 L27.83475,6.07487838 L21.8495473,6.07487838 C22.3694797,3.29035135 24.2746824,1.21872973 26.5396824,1.21872973 C27.5959662,1.21872973 28.6009662,1.66528378 29.4458311,2.51035135 L29.8759662,2.08041892 L30.3061014,1.65048649 C29.2433311,0.587716216 27.9058986,0.00251351351 26.5396824,0.00251351351 C23.621777,0.00251351351 21.1798176,2.61372973 20.6152905,6.07487838" id="Fill-70"></path>
        </g>
    </g>
</svg>